<svg width="36" height="36" viewBox="0 0 36 36" fill="none" xmlns="http://www.w3.org/2000/svg">
<g clip-path="url(#clip0_2_142)">
<path d="M17.9999 6.18305L16.3866 4.5248C12.5999 0.632298 5.65637 1.97555 3.14987 6.8693C1.97312 9.17105 1.70762 12.4943 3.85637 16.7355C5.92637 20.8193 10.2329 25.7108 17.9999 31.0388C25.7669 25.7108 30.0711 20.8193 32.1434 16.7355C34.2921 12.492 34.0289 9.17105 32.8499 6.8693C30.3434 1.97555 23.3999 0.630048 19.6131 4.52255L17.9999 6.18305ZM17.9999 33.75C-16.4994 10.953 7.37762 -6.83995 17.6039 2.5718C17.7389 2.69555 17.8716 2.8238 17.9999 2.95655C18.1268 2.82392 18.2589 2.69632 18.3959 2.57405C28.6199 -6.84445 52.4991 10.9508 17.9999 33.75Z" fill="#5F391E"/>
</g>
<defs>
<clipPath id="clip0_2_142">
<rect width="36" height="36" fill="white"/>
</clipPath>
</defs>
</svg>
