<svg width="42" height="42" viewBox="0 0 42 42" fill="none" xmlns="http://www.w3.org/2000/svg">
<path d="M21.0001 0C9.42065 0 0 9.42065 0 21.0001C0 32.5796 9.42065 42.0002 21.0001 42.0002C32.5796 42.0002 42.0002 32.5796 42.0002 21.0001C42.0002 9.42065 32.5794 0 21.0001 0ZM21.0001 38.4002C11.4059 38.4002 3.60006 30.5943 3.60006 21.0001C3.60006 11.4059 11.4059 3.60006 21.0001 3.60006C30.5943 3.60006 38.4002 11.4059 38.4002 21.0001C38.4002 30.5943 30.5941 38.4002 21.0001 38.4002Z" fill="#5F391E"/>
<path d="M31.7103 14.3218C30.9315 13.7042 29.7995 13.8332 29.1814 14.6137L20.8978 25.0574L15.9414 19.77C15.2636 19.0435 14.1232 19.0095 13.3971 19.6868C12.6718 20.3678 12.6349 21.5067 13.3152 22.2311L19.6984 29.0409C20.0395 29.4054 20.5153 29.6105 21.0114 29.6105C21.0359 29.6105 21.0605 29.6105 21.0858 29.6093C21.6084 29.5871 22.0966 29.3386 22.4217 28.9284L32.002 16.8497C32.6195 16.0716 32.4889 14.9396 31.7103 14.3218Z" fill="#5F391E"/>
</svg>
